<svg width="30" height="24" viewBox="0 0 30 24" fill="none" xmlns="http://www.w3.org/2000/svg">
<path d="M13.218 0.59111L0.71283 10.5829C0.485134 10.7729 0.306647 10.997 0.187612 11.2423C-0.0625372 11.7289 -0.0625372 12.2746 0.187612 12.7611C0.306647 13.0064 0.485134 13.2305 0.71283 13.4205L13.218 23.4123C13.4512 23.5986 13.7281 23.7464 14.0327 23.8473C14.3374 23.9481 14.664 24 14.9938 24C15.6598 24 16.2985 23.7886 16.7695 23.4123C17.2405 23.036 17.505 22.5256 17.505 21.9935C17.505 21.4613 17.2405 20.9509 16.7695 20.5746L8.51607 14.0001H27.499C28.1623 14.0001 28.7984 13.7895 29.2675 13.4148C29.7365 13.04 30 12.5317 30 12.0017C30 11.4717 29.7365 10.9634 29.2675 10.5887C28.7984 10.2139 28.1623 10.0034 27.499 10.0034H8.51607L16.7695 3.42877C17.0039 3.243 17.19 3.02198 17.317 2.77846C17.4439 2.53494 17.5093 2.27375 17.5093 2.00994C17.5093 1.74613 17.4439 1.48494 17.317 1.24142C17.19 0.997901 17.0039 0.776883 16.7695 0.59111C16.537 0.403808 16.2604 0.255138 15.9556 0.153685C15.6508 0.0522309 15.3239 0 14.9938 0C14.6636 0 14.3367 0.0522309 14.0319 0.153685C13.7271 0.255138 13.4505 0.403808 13.218 0.59111Z" fill="#F8F8F8"/>
</svg>
