<svg width="35" height="43" viewBox="0 0 35 43" fill="none" xmlns="http://www.w3.org/2000/svg">
<path d="M0 1.50018C0 1.1023 0.13152 0.720729 0.365626 0.439391C0.599731 0.158053 0.917247 0 1.24832 0H2.34185C4.15691 0 5.20051 1.41917 5.8047 2.83533C6.21665 3.80445 6.51375 4.98659 6.76092 6.01271H32.4639C32.8497 6.01284 33.2302 6.12041 33.5755 6.32697C33.9209 6.53353 34.2217 6.83346 34.4544 7.20323C34.6871 7.573 34.8454 8.00253 34.9167 8.45814C34.9881 8.91375 34.9706 9.38303 34.8657 9.82915L31.1307 25.656C30.8336 26.9117 30.2038 28.0167 29.337 28.8034C28.4701 29.5901 27.4134 30.0157 26.3271 30.0155H13.6467C12.5513 30.016 11.4862 29.5836 10.6155 28.785C9.74481 27.9863 9.11676 26.8658 8.82814 25.596L7.22529 18.5302L7.20033 18.4342L4.62878 7.93893L4.37912 6.92781C4.12945 5.88969 3.90975 4.97158 3.58019 4.20049C3.18322 3.27038 2.81871 3.00035 2.34185 3.00035H1.24832C0.917247 3.00035 0.599731 2.8423 0.365626 2.56096C0.13152 2.27962 0 1.89805 0 1.50018ZM9.60709 17.6241L11.2374 24.8129C11.3819 25.4475 11.6961 26.0075 12.1314 26.4065C12.5667 26.8055 13.0992 27.0215 13.6467 27.0212H26.3296C26.8725 27.0205 27.4004 26.8072 27.8334 26.4136C28.2663 26.02 28.5807 25.4675 28.7289 24.8399L32.4639 9.01306H7.49743L9.60709 17.6241ZM17.484 37.5134C17.484 38.707 17.0895 39.8518 16.3871 40.6958C15.6848 41.5398 14.7323 42.0139 13.739 42.0139C12.7458 42.0139 11.7933 41.5398 11.0909 40.6958C10.3886 39.8518 9.99407 38.707 9.99407 37.5134C9.99407 36.3198 10.3886 35.1751 11.0909 34.3311C11.7933 33.487 12.7458 33.0129 13.739 33.0129C14.7323 33.0129 15.6848 33.487 16.3871 34.3311C17.0895 35.1751 17.484 36.3198 17.484 37.5134ZM14.9874 37.5134C14.9874 37.1155 14.8558 36.734 14.6217 36.4526C14.3876 36.1713 14.0701 36.0132 13.739 36.0132C13.408 36.0132 13.0904 36.1713 12.8563 36.4526C12.6222 36.734 12.4907 37.1155 12.4907 37.5134C12.4907 37.9113 12.6222 38.2929 12.8563 38.5742C13.0904 38.8555 13.408 39.0136 13.739 39.0136C14.0701 39.0136 14.3876 38.8555 14.6217 38.5742C14.8558 38.2929 14.9874 37.9113 14.9874 37.5134ZM29.9672 37.5134C29.9672 38.707 29.5727 39.8518 28.8704 40.6958C28.168 41.5398 27.2155 42.0139 26.2223 42.0139C25.229 42.0139 24.2765 41.5398 23.5742 40.6958C22.8719 39.8518 22.4773 38.707 22.4773 37.5134C22.4773 36.3198 22.8719 35.1751 23.5742 34.3311C24.2765 33.487 25.229 33.0129 26.2223 33.0129C27.2155 33.0129 28.168 33.487 28.8704 34.3311C29.5727 35.1751 29.9672 36.3198 29.9672 37.5134ZM27.4706 37.5134C27.4706 37.1155 27.3391 36.734 27.105 36.4526C26.8709 36.1713 26.5533 36.0132 26.2223 36.0132C25.8912 36.0132 25.5737 36.1713 25.3396 36.4526C25.1055 36.734 24.9739 37.1155 24.9739 37.5134C24.9739 37.9113 25.1055 38.2929 25.3396 38.5742C25.5737 38.8555 25.8912 39.0136 26.2223 39.0136C26.5533 39.0136 26.8709 38.8555 27.105 38.5742C27.3391 38.2929 27.4706 37.9113 27.4706 37.5134Z" fill="white"/>
</svg>

