<svg width="31" height="25" viewBox="0 0 31 25" fill="none" xmlns="http://www.w3.org/2000/svg">
<path d="M9.96769 18.25L21.1215 6.75M1 21.7C0.999999 22.3092 1.23441 22.8935 1.6518 23.3247C2.06918 23.7559 2.63544 23.9988 3.22631 24H27.7737C28.3646 23.9988 28.9308 23.7559 29.3482 23.3247C29.7656 22.8935 30 22.3092 30 21.7V17.0218C29.0368 16.7525 28.1864 16.1638 27.5801 15.3465C26.9737 14.5293 26.6452 13.5289 26.6452 12.5C26.6452 11.4711 26.9737 10.4707 27.5801 9.65347C28.1864 8.83622 29.0368 8.24749 30 7.9782V3.3C30 2.6908 29.7656 2.10648 29.3482 1.67528C28.9308 1.24408 28.3646 1.00122 27.7737 1H3.22631C2.63544 1.00122 2.06918 1.24408 1.6518 1.67528C1.23441 2.10648 0.999999 2.6908 1 3.3V7.969C1.97087 8.23228 2.82986 8.81963 3.44282 9.63933C4.05579 10.459 4.38823 11.465 4.38823 12.5C4.38823 13.535 4.05579 14.541 3.44282 15.3607C2.82986 16.1804 1.97087 16.7677 1 17.031V21.7Z" stroke="white" stroke-linecap="round" stroke-linejoin="round"/>
<path d="M11.0832 9.05C11.379 9.05 11.6627 8.92884 11.8719 8.71317C12.081 8.49751 12.1985 8.205 12.1985 7.9C12.1985 7.595 12.081 7.30249 11.8719 7.08683C11.6627 6.87116 11.379 6.75 11.0832 6.75C10.7873 6.75 10.5036 6.87116 10.2945 7.08683C10.0853 7.30249 9.96777 7.595 9.96777 7.9C9.96777 8.205 10.0853 8.49751 10.2945 8.71317C10.5036 8.92884 10.7873 9.05 11.0832 9.05ZM20.0062 18.25C20.3021 18.25 20.5858 18.1288 20.7949 17.9132C21.0041 17.6975 21.1216 17.405 21.1216 17.1C21.1216 16.795 21.0041 16.5025 20.7949 16.2868C20.5858 16.0712 20.3021 15.95 20.0062 15.95C19.7104 15.95 19.4267 16.0712 19.2175 16.2868C19.0084 16.5025 18.8909 16.795 18.8909 17.1C18.8909 17.405 19.0084 17.6975 19.2175 17.9132C19.4267 18.1288 19.7104 18.25 20.0062 18.25Z" stroke="white" stroke-linecap="round" stroke-linejoin="round"/>
</svg>

