<svg width="36" height="36" viewBox="0 0 36 36" fill="none" xmlns="http://www.w3.org/2000/svg">
<g clip-path="url(#clip0_101_1271)">
<path d="M25.1799 12.3198L19.2699 18.1298C18.6324 17.8227 17.9068 17.7509 17.2215 17.927C16.5361 18.1031 15.935 18.5158 15.5245 19.0922C15.114 19.6685 14.9204 20.3715 14.978 21.0768C15.0356 21.7821 15.3406 22.4443 15.8392 22.9464C16.3378 23.4486 16.9979 23.7583 17.7027 23.8209C18.4076 23.8834 19.1119 23.6948 19.6912 23.2884C20.2704 22.8819 20.6874 22.2838 20.8683 21.5997C21.0492 20.9156 20.9825 20.1895 20.6799 19.5498L26.5999 13.7398L25.1799 12.3198Z" fill="#F8F8F8"/>
<path d="M18.0001 4.25001C14.8528 4.24641 11.7702 5.14355 9.11643 6.83548C6.46261 8.52742 4.34841 10.9435 3.02352 13.7983C1.69862 16.6531 1.21838 19.8275 1.63951 22.9465C2.06064 26.0655 3.36554 28.9988 5.40011 31.4L5.70011 31.75H30.3001L30.6001 31.4C32.6347 28.9988 33.9396 26.0655 34.3607 22.9465C34.7818 19.8275 34.3016 16.6531 32.9767 13.7983C31.6518 10.9435 29.5376 8.52742 26.8838 6.83548C24.23 5.14355 21.1474 4.24641 18.0001 4.25001ZM29.3401 29.75H6.66011C4.86579 27.5047 3.78286 24.7748 3.55011 21.91H7.00011V19.91H3.55011C3.71684 16.7346 4.92992 13.7036 7.00011 11.29L9.45011 13.74L10.8601 12.33L8.43011 9.87001C10.813 7.7629 13.8265 6.50406 17.0001 6.29001V9.79001H19.0001V6.30001C22.5056 6.55423 25.7987 8.07563 28.2646 10.5801C30.7304 13.0846 32.2004 16.401 32.4001 19.91H28.9201V21.91H32.4501C32.2174 24.7748 31.1344 27.5047 29.3401 29.75Z" fill="#F8F8F8"/>
</g>
<defs>
<clipPath id="clip0_101_1271">
<rect width="36" height="36" fill="white"/>
</clipPath>
</defs>
</svg>

