<svg width="30" height="30" viewBox="0 0 30 30" fill="none" xmlns="http://www.w3.org/2000/svg">
<mask id="mask0_103_2176" style="mask-type:luminance" maskUnits="userSpaceOnUse" x="0" y="0" width="30" height="29">
<path d="M11.4275 26.9817C9.3601 26.3642 7.48771 25.2222 5.99251 23.6667C6.47355 23.0961 6.77342 22.395 6.85375 21.6531C6.93407 20.9111 6.7912 20.1621 6.44341 19.5018C6.09561 18.8415 5.55872 18.3 4.90144 17.9466C4.24415 17.5932 3.49636 17.4439 2.75376 17.5179C2.5842 16.6893 2.49918 15.8456 2.50001 14.9998C2.50001 13.6935 2.70001 12.4335 3.07251 11.2498H3.12501C3.76235 11.25 4.38924 11.0877 4.94646 10.7784C5.50369 10.469 5.97288 10.0227 6.30971 9.48165C6.64655 8.94059 6.83993 8.3226 6.87158 7.68604C6.90324 7.04948 6.77213 6.41535 6.49063 5.84354C7.95646 4.47969 9.72847 3.48791 11.6575 2.95166C11.9715 3.56816 12.4499 4.08578 13.0398 4.44725C13.6297 4.80873 14.3082 4.99996 15 4.99979C15.6919 4.99996 16.3703 4.80873 16.9602 4.44725C17.5501 4.08578 18.0285 3.56816 18.3425 2.95166C20.2715 3.48791 22.0436 4.47969 23.5094 5.84354C23.2258 6.41935 23.0948 7.05831 23.1289 7.69926C23.163 8.3402 23.361 8.96167 23.704 9.50418C24.047 10.0467 24.5235 10.4921 25.0879 10.7977C25.6523 11.1034 26.2857 11.259 26.9275 11.2498C27.308 12.4634 27.5011 13.7279 27.5 14.9998C27.5 15.8623 27.4125 16.7048 27.2463 17.5185C26.5037 17.4445 25.7559 17.5938 25.0986 17.9472C24.4413 18.3007 23.9044 18.8421 23.5566 19.5024C23.2088 20.1627 23.0659 20.9117 23.1463 21.6537C23.2266 22.3956 23.5265 23.0967 24.0075 23.6673C22.5122 25.2226 20.6398 26.3644 18.5725 26.9817C18.3297 26.225 17.853 25.5649 17.2109 25.0966C16.5689 24.6283 15.7947 24.376 15 24.376C14.2053 24.376 13.4312 24.6283 12.7891 25.0966C12.1471 25.5649 11.6703 26.225 11.4275 26.9817Z" fill="white" stroke="white" stroke-width="4" stroke-linejoin="round"/>
<path d="M15 19.375C15.5745 19.375 16.1434 19.2618 16.6742 19.042C17.205 18.8221 17.6873 18.4998 18.0936 18.0936C18.4998 17.6873 18.8221 17.205 19.042 16.6742C19.2618 16.1434 19.375 15.5745 19.375 15C19.375 14.4255 19.2618 13.8566 19.042 13.3258C18.8221 12.795 18.4998 12.3127 18.0936 11.9064C17.6873 11.5002 17.205 11.1779 16.6742 10.958C16.1434 10.7382 15.5745 10.625 15 10.625C13.8397 10.625 12.7269 11.0859 11.9064 11.9064C11.0859 12.7269 10.625 13.8397 10.625 15C10.625 16.1603 11.0859 17.2731 11.9064 18.0936C12.7269 18.9141 13.8397 19.375 15 19.375Z" fill="black" stroke="black" stroke-width="4" stroke-linejoin="round"/>
</mask>
<g mask="url(#mask0_103_2176)">
<path d="M0 0H30V30H0V0Z" fill="#111111"/>
</g>
</svg>

