<svg width="30" height="27" viewBox="0 0 30 27" fill="none" xmlns="http://www.w3.org/2000/svg">
<path d="M22.285 23.5026L27.0183 19.3506L25.975 18.4195L22.285 21.6612L20.6933 20.2134L19.6483 21.1519L22.285 23.5026ZM4.61667 7.02538H22.0533V5.54041H4.615L4.61667 7.02538ZM23.3333 26.9017C21.4767 26.9017 19.9017 26.325 18.6083 25.1717C17.3139 24.0194 16.6667 22.6161 16.6667 20.9618C16.6667 19.3075 17.3139 17.9038 18.6083 16.7504C19.9028 15.5971 21.4778 15.0209 23.3333 15.0219C25.1889 15.0229 26.7644 15.5991 28.06 16.7504C29.3555 17.9018 30.0022 19.3056 30 20.9618C30 22.6151 29.3533 24.0184 28.06 25.1717C26.7644 26.325 25.1889 26.9017 23.3333 26.9017ZM0 24.9014V2.39971C0 1.73444 0.262222 1.16817 0.786667 0.700905C1.31111 0.233635 1.94667 0 2.69333 0H23.975C24.7194 0 25.3544 0.233635 25.88 0.700905C26.4044 1.16817 26.6667 1.73444 26.6667 2.39971V11.2264C26.3955 11.1373 26.1267 11.061 25.86 10.9977C25.5922 10.9343 25.3055 10.8848 25 10.8492V2.39971C25 2.17102 24.8933 1.96115 24.68 1.77008C24.4667 1.57902 24.2311 1.48398 23.9733 1.48497H2.69333C2.43667 1.48497 2.20111 1.58001 1.98667 1.77008C1.77222 1.96016 1.66556 2.17003 1.66667 2.39971V22.3488H12.24C12.3156 22.7547 12.4133 23.1516 12.5333 23.5397C12.6544 23.9278 12.8228 24.298 13.0383 24.6505L12.9817 24.701L11.09 23.4744L8.84666 24.9014L6.60333 23.4744L4.36 24.9014L2.115 23.4744L0 24.9014ZM4.61667 18.2191H12.465C12.5272 17.9468 12.6039 17.6919 12.695 17.4543C12.7861 17.2167 12.8928 16.9766 13.015 16.7341H4.61667V18.2191ZM4.61667 12.6222H16.8C17.3444 12.2391 17.9278 11.9198 18.55 11.6644C19.1722 11.408 19.8372 11.2323 20.545 11.1373H4.615L4.61667 12.6222Z" fill="#111111"/>
</svg>

