<svg width="25" height="30" viewBox="0 0 25 30" fill="none" xmlns="http://www.w3.org/2000/svg">
<path d="M23.0556 30L14.3056 19.5C13.6111 20.1667 12.8125 20.6944 11.9097 21.0833C11.0069 21.4722 10.0463 21.6667 9.02778 21.6667C6.50463 21.6667 4.36944 20.6178 2.62222 18.52C0.875001 16.4222 0.000926661 13.86 7.34862e-07 10.8333C-0.000925191 7.80667 0.873149 5.24444 2.62222 3.14667C4.3713 1.04889 6.50648 0 9.02778 0C11.5491 0 13.6847 1.04889 15.4347 3.14667C17.1847 5.24444 18.0583 7.80667 18.0556 10.8333C18.0556 12.0556 17.8935 13.2083 17.5694 14.2917C17.2454 15.375 16.8056 16.3333 16.25 17.1667L25 27.6667L23.0556 30ZM9.02778 18.3333C10.7639 18.3333 12.2398 17.6044 13.4556 16.1467C14.6713 14.6889 15.2787 12.9178 15.2778 10.8333C15.2769 8.74889 14.6694 6.97833 13.4556 5.52167C12.2417 4.065 10.7657 3.33556 9.02778 3.33333C7.28981 3.33111 5.81435 4.06056 4.60139 5.52167C3.38843 6.98278 2.78056 8.75333 2.77778 10.8333C2.775 12.9133 3.38287 14.6844 4.60139 16.1467C5.81991 17.6089 7.29537 18.3378 9.02778 18.3333Z" fill="#111111"/>
</svg>

