<svg width="76" height="71" viewBox="0 0 76 71" fill="none" xmlns="http://www.w3.org/2000/svg">
<path d="M38 71C16.8834 67.0143 0 50.0937 0 32.2727V12.9091L38 0L76 12.9091V32.2727C76 50.1002 59.1166 67.0143 38 71ZM7.6 16.1364V32.2727C7.81716 39.7346 10.9074 46.9305 16.3977 52.759C21.888 58.5875 29.4759 62.7276 38 64.5455C46.5241 62.7276 54.112 58.5875 59.6023 52.759C65.0926 46.9305 68.1828 39.7346 68.4 32.2727V16.1364L38 6.45455L7.6 16.1364Z" fill="white"/>
<path d="M37.5 32C42.7467 32 47 28.4183 47 24C47 19.5817 42.7467 16 37.5 16C32.2533 16 28 19.5817 28 24C28 28.4183 32.2533 32 37.5 32Z" fill="white"/>
<path d="M19 45.5C20.8724 48.3447 23.6185 50.7236 26.9571 52.3929C30.2957 54.0622 34.1068 54.962 38 55C41.8932 54.962 45.7043 54.0622 49.0429 52.3929C52.3815 50.7236 55.1276 48.3447 57 45.5C56.905 39.496 44.3004 36 38 36C31.6654 36 19.095 39.496 19 45.5Z" fill="white"/>
</svg>

