<svg width="38" height="30" viewBox="0 0 38 30" fill="none" xmlns="http://www.w3.org/2000/svg">
<path d="M13.125 18.2292C8.7375 18.2292 0 20.6667 0 25.5208V29.1667H26.25V25.5208C26.25 20.6667 17.5125 18.2292 13.125 18.2292ZM4.3875 25C5.9625 23.7917 9.76875 22.3958 13.125 22.3958C16.4813 22.3958 20.2875 23.7917 21.8625 25H4.3875ZM13.125 14.5833C16.7437 14.5833 19.6875 11.3125 19.6875 7.29167C19.6875 3.27083 16.7437 0 13.125 0C9.50625 0 6.5625 3.27083 6.5625 7.29167C6.5625 11.3125 9.50625 14.5833 13.125 14.5833ZM13.125 4.16667C14.6812 4.16667 15.9375 5.5625 15.9375 7.29167C15.9375 9.02083 14.6812 10.4167 13.125 10.4167C11.5688 10.4167 10.3125 9.02083 10.3125 7.29167C10.3125 5.5625 11.5688 4.16667 13.125 4.16667ZM26.325 18.3542C28.5 20.1042 30 22.4375 30 25.5208V29.1667H37.5V25.5208C37.5 21.3125 30.9375 18.9167 26.325 18.3542ZM24.375 14.5833C27.9937 14.5833 30.9375 11.3125 30.9375 7.29167C30.9375 3.27083 27.9937 0 24.375 0C23.3625 0 22.425 0.270833 21.5625 0.729166C22.7437 2.58333 23.4375 4.85417 23.4375 7.29167C23.4375 9.72917 22.7437 12 21.5625 13.8542C22.425 14.3125 23.3625 14.5833 24.375 14.5833Z" fill="white"/>
</svg>

